# xmcd CD database file
#
# Track frame offsets:
#	187
#	18680
#	33975
#	57187
#	71225
#	89902
#	105912
#	123062
#	134852
#	151687
#	170922
#	183475
#	199807
#	216287
#
# Disc length: 3025 seconds
#
# Revision: 2
# Processed by: cddbd v1.5.2PL0 Copyright (c) Steve Scherf et al.
# Submitted via: CDex 1.60beta1
#
DISCID=d10bcf0e
DTITLE=G.D.FLICKERS - TRAVERIN' BAND
DYEAR=1990
DGENRE=J-Rock
TTITLE0=トラベリンバンド
TTITLE1=誰も何もしちゃくれないぜ
TTITLE2=HEY-BADFRIND
TTITLE3=馬鹿馬鹿しいだろう
TTITLE4=STOPorTRY
TTITLE5=SECRET GAME
TTITLE6=イヤな奴
TTITLE7=炎のドライビン
TTITLE8=TOO FIRST TO LIVE, TOO YOUNG TO DIE
TTITLE9=199X
TTITLE10=RADIO G.D.
TTITLE11=テロリスト
TTITLE12=もっとやさしく
TTITLE13=トラベリンバンドⅡ
EXTD=YEAR: 1990
EXTT0=
EXTT1=
EXTT2=
EXTT3=
EXTT4=
EXTT5=
EXTT6=
EXTT7=
EXTT8=
EXTT9=
EXTT10=
EXTT11=
EXTT12=
EXTT13=
PLAYORDER=
